Coordinates
version=1
nRows=19
nColumns=24
inDegrees=yes

Units are S.I. units (second, meters, Newtons, ...)
Angles are in degrees.

endheader
time	pelvis_tilt	pelvis_list	pelvis_rotation	pelvis_tx	pelvis_ty	pelvis_tz	hip_flexion_r	hip_adduction_r	hip_rotation_r	knee_angle_r	ankle_angle_r	subtalar_angle_r	mtp_angle_r	hip_flexion_l	hip_adduction_l	hip_rotation_l	knee_angle_l	ankle_angle_l	subtalar_angle_l	mtp_angle_l	lumbar_extension	lumbar_bending	lumbar_rotation
      0.57900000	      1.43904666	      7.15944253	     -5.41554250	     -0.78606016	      0.97995868	      0.31128310	     23.39848262	     -5.47950766	      0.81864007	     -0.18247808	      1.22802235	     -0.73098781	      9.09781606	    -20.60948598	     13.21325089	      7.78544762	     -0.90594671	     10.19556345	    -15.72547005	     -3.30257182	    -12.77643543	      0.01394589	     -8.77091756
      0.58316667	      1.36998660	      7.02143887	     -5.41682983	     -0.78038754	      0.97922674	      0.31170371	     23.45315571	     -5.26552405	      1.09565190	     -0.43227158	      1.03507657	     -0.91466261	      9.11584216	    -20.63128090	     13.07737362	      7.61751851	     -1.46240008	     10.46478511	    -15.41913171	     -3.24138438	    -12.69490957	      0.20923049	     -8.73602719
      0.58733333	      1.30625310	      6.86748857	     -5.42112845	     -0.77468593	      0.97855087	      0.31214396	     23.51234295	     -5.03576644	      1.38814066	     -0.77856049	      0.82741268	     -1.12223342	      9.13818435	    -20.63551204	     12.92678887	      7.40459306	     -2.06356087	     10.73941879	    -15.05996659	     -3.15754829	    -12.62537360	      0.41879835	     -8.69220209
      0.59150000	      1.23771743	      6.69603203	     -5.42773822	     -0.76893981	      0.97790857	      0.31259554	     23.58051723	     -4.78753636	      1.69549319	     -1.20261100	      0.59065882	     -1.37945424	      9.16286903	    -20.62005330	     12.76059236	      7.18480753	     -2.70289120	     11.01188616	    -14.71593242	     -3.05885944	    -12.53490440	      0.65813584	     -8.63862521
      0.59566667	      1.18263523	      6.52241140	     -5.43149815	     -0.76320078	      0.97731730	      0.31307205	     23.65660663	     -4.53806003	      1.99561062	     -1.72385881	      0.29123673	     -1.69195733	      9.19355281	    -20.58786716	     12.59023450	      6.91957690	     -3.40218100	     11.27370191	    -14.31780132	     -2.92521539	    -12.48670836	      0.88043242	     -8.58940881
      0.59983333	      1.10556746	      6.33600188	     -5.43851086	     -0.75739941	      0.97674092	      0.31355496	     23.76237121	     -4.27172238	      2.29795236	     -2.31393625	     -0.03172408	     -2.03266737	      9.22371369	    -20.52783775	     12.40848012	      6.67991026	     -4.11300069	     11.48829291	    -13.98013655	     -2.77727844	    -12.39858361	      1.12933800	     -8.53039681
      0.60400000	      1.04755668	      6.13329979	     -5.44894329	     -0.75157457	      0.97621709	      0.31407182	     23.85347900	     -3.98790750	      2.60357499	     -2.96224701	     -0.38434966	     -2.42443477	      9.25444476	    -20.46548520	     12.21040597	      6.40151375	     -4.87452994	     11.69802821	    -13.61567465	     -2.60154278	    -12.32797840	      1.39494767	     -8.46103258
      0.60816667	      0.99892406	      5.92497683	     -5.44851006	     -0.74572975	      0.97575698	      0.31458937	     23.93663766	     -3.70364890	      2.88692478	     -3.65373129	     -0.74630511	     -2.82795817	      9.29683852	    -20.38269358	     12.00284605	      6.09606743	     -5.69633865	     11.89334763	    -13.23255818	     -2.33440066	    -12.28177071	      1.66524243	     -8.39745226
      0.61233333	      0.95547434	      5.69622201	     -5.46735284	     -0.73981558	      0.97532492	      0.31513940	     24.02945486	     -3.39073971	      3.15901707	     -4.41295572	     -1.13614390	     -3.25994814	      9.35167617	    -20.30743723	     11.77924324	      5.78044585	     -6.51346817	     12.07212143	    -12.83201266	     -1.93406320	    -12.23017273	      1.96480142	     -8.33021818
      0.61650000	      0.84535205	      5.50466472	     -5.47537761	     -0.73389632	      0.97483532	      0.31567772	     24.22954532	     -3.10970933	      3.40721627	     -5.26127240	     -1.51042866	     -3.67507080	      9.36671804	    -20.15601929	     11.59474031	      5.60420772	     -7.33537167	     12.06085055	    -12.71699774	     -1.74958302	    -12.09255658	      2.21457847	     -8.25586343
      0.62066667	      0.82427508	      5.25414137	     -5.48620108	     -0.72792746	      0.97451178	      0.31626573	     24.29414158	     -2.77758129	      3.64888009	     -6.06713274	     -1.90718692	     -4.17484199	      9.40627246	    -20.04502039	     11.34100541	      5.19880233	     -8.27826012	     12.21850027	    -12.23081096	     -1.21178143	    -12.06664891	      2.54521848	     -8.18285197
      0.62483333	      0.72121014	      5.06882679	     -5.48146532	     -0.72196572	      0.97409531	      0.31680789	     24.49701369	     -2.50785501	      3.86307907	     -6.97507063	     -2.28305817	     -4.64110552	      9.41515385	    -19.84721279	     11.15818905	      5.00172269	     -9.20919528	     12.14111586	    -12.10736781	     -0.91471181	    -11.92673596	      2.78408525	     -8.10175728
      0.62900000	      0.69871779	      4.83538833	     -5.50644392	     -0.71595586	      0.97380766	      0.31743203	     24.61343261	     -2.18580295	      4.05736600	     -7.91874275	     -2.52928495	     -5.05085344	      9.51351754	    -19.70825098	     10.92504033	      4.62259231	    -10.17967809	     12.06739342	    -11.80174344	      2.88408769	    -11.90052563	      3.07630642	     -8.01164624
      0.63316667	      0.61558900	      4.60877859	     -5.49313497	     -0.70989642	      0.97351585	      0.31798067	     24.76660470	     -1.88182015	      4.21843254	     -8.81368768	     -2.90442062	     -5.54833293	      9.49863917	    -19.50760086	     10.69774957	      4.42713465	    -11.15869533	     11.89784695	    -11.73381760	      2.95462075	    -11.77896080	      3.38396166	     -7.95756979
      0.63733333	      0.56382235	      4.38261747	     -5.49073473	     -0.70383916	      0.97328187	      0.31857306	     24.90207219	     -1.57582384	      4.36336818	     -9.75490317	     -3.16606211	     -6.01129053	      9.47680705	    -19.29808680	     10.46672425	      4.13758940	    -12.21347130	     11.75370546	    -11.52756974	      3.10152017	    -11.70184378	      3.68088349	     -7.88552486
      0.64150000	      0.53715109	      4.12599569	     -5.46522564	     -0.69774583	      0.97313572	      0.31915734	     24.98733717	     -1.25120709	      4.47186333	    -10.67759531	     -3.35592726	     -6.47203128	      9.42924673	    -19.08791575	     10.19171684	      3.82612957	    -13.32531338	     11.59422507	    -11.26230956	      3.44641054	    -11.66217854	      4.01264173	     -7.81440470
      0.64566667	      0.52607391	      3.87322700	     -5.47107209	     -0.69165279	      0.97303161	      0.31979355	     25.05787597	     -0.91886421	      4.60675307	    -11.60265504	     -3.50592187	     -6.88589474	      9.29139985	    -18.86149937	      9.92324825	      3.43481115	    -14.48366657	     11.35611794	    -10.99048856	      4.42689719	    -11.63478842	      4.33606373	     -7.77080933
      0.64983333	      0.46712141	      3.67434645	     -5.44887293	     -0.68555873	      0.97290931	      0.32035247	     25.21239319	     -0.65082045	      4.68015926	    -12.60051429	     -3.54638783	     -7.24538705	      9.25710831	    -18.59358527	      9.72053186	      3.28433067	    -15.59641444	     10.89410280	    -11.07390589	      4.62863706	    -11.55056376	      4.59001722	     -7.69331914
      0.65400000	      0.43238574	      3.44003997	     -5.39739285	     -0.67945487	      0.97286870	      0.32090574	     25.31112982	     -0.36139085	      4.70134416	    -13.55714485	     -3.57586739	     -7.65101730	      9.16315869	    -18.29109868	      9.45009063	      2.99358923	    -16.83697455	     10.55263014	    -10.82761965	      5.18534839	    -11.47645638	      4.90667308	     -7.63769766
